<svg xmlns="http://www.w3.org/2000/svg" viewBox="0 0 1200 800" role="img" aria-labelledby="title desc">
  <title id="title">Price Detective app cover</title>
  <desc id="desc">A clean price comparison dashboard visual for Price Detective.</desc>
  <defs>
    <linearGradient id="bg" x1="0" y1="0" x2="1" y2="1">
      <stop offset="0" stop-color="#f8fafc"/>
      <stop offset="1" stop-color="#dbeafe"/>
    </linearGradient>
    <linearGradient id="blue" x1="0" y1="0" x2="1" y2="1">
      <stop offset="0" stop-color="#0284c7"/>
      <stop offset="1" stop-color="#22c55e"/>
    </linearGradient>
    <filter id="shadow" x="-20%" y="-20%" width="140%" height="140%">
      <feDropShadow dx="0" dy="18" stdDeviation="24" flood-color="#0f172a" flood-opacity=".16"/>
    </filter>
  </defs>
  <rect width="1200" height="800" fill="url(#bg)"/>
  <rect x="90" y="86" width="1020" height="628" rx="44" fill="#ffffff" filter="url(#shadow)"/>
  <rect x="138" y="132" width="420" height="536" rx="34" fill="#0f172a"/>
  <rect x="174" y="178" width="348" height="84" rx="18" fill="#ffffff" opacity=".92"/>
  <rect x="174" y="292" width="348" height="84" rx="18" fill="#ffffff" opacity=".92"/>
  <rect x="174" y="406" width="348" height="84" rx="18" fill="#ffffff" opacity=".92"/>
  <rect x="174" y="520" width="348" height="84" rx="18" fill="#ffffff" opacity=".92"/>
  <rect x="202" y="206" width="86" height="18" rx="9" fill="#64748b"/>
  <rect x="202" y="320" width="128" height="18" rx="9" fill="#64748b"/>
  <rect x="202" y="434" width="104" height="18" rx="9" fill="#64748b"/>
  <rect x="202" y="548" width="142" height="18" rx="9" fill="#64748b"/>
  <rect x="382" y="196" width="102" height="38" rx="19" fill="#dcfce7"/>
  <rect x="382" y="310" width="102" height="38" rx="19" fill="#fee2e2"/>
  <rect x="382" y="424" width="102" height="38" rx="19" fill="#dcfce7"/>
  <rect x="382" y="538" width="102" height="38" rx="19" fill="#fee2e2"/>
  <path d="M664 178h296a28 28 0 0 1 28 28v116a28 28 0 0 1-28 28H664a28 28 0 0 1-28-28V206a28 28 0 0 1 28-28z" fill="url(#blue)"/>
  <text x="682" y="258" font-family="Arial, Helvetica, sans-serif" font-size="42" font-weight="800" fill="#ffffff">Fiyat Dedektifi</text>
  <rect x="636" y="394" width="352" height="64" rx="20" fill="#f1f5f9"/>
  <rect x="636" y="486" width="286" height="64" rx="20" fill="#f1f5f9"/>
  <rect x="636" y="578" width="320" height="64" rx="20" fill="#f1f5f9"/>
  <rect x="676" y="418" width="174" height="16" rx="8" fill="#94a3b8"/>
  <rect x="676" y="510" width="128" height="16" rx="8" fill="#94a3b8"/>
  <rect x="676" y="602" width="158" height="16" rx="8" fill="#94a3b8"/>
  <circle cx="962" cy="650" r="88" fill="#0f172a"/>
  <circle cx="962" cy="650" r="46" fill="none" stroke="#38bdf8" stroke-width="18"/>
  <path d="m998 686 52 52" stroke="#38bdf8" stroke-width="18" stroke-linecap="round"/>
</svg>
